<?xml version="1.0" standalone="no"?><!DOCTYPE svg PUBLIC "-//W3C//DTD SVG 1.1//EN" "http://www.w3.org/Graphics/SVG/1.1/DTD/svg11.dtd"><svg t="1661402705530" class="icon" viewBox="0 0 1024 1024" version="1.1" xmlns="http://www.w3.org/2000/svg" p-id="3535" xmlns:xlink="http://www.w3.org/1999/xlink" width="16" height="16"><defs><style type="text/css">@font-face { font-family: feedback-iconfont; src: url("//at.alicdn.com/t/font_1031158_u69w8yhxdu.woff2?t=1630033759944") format("woff2"), url("//at.alicdn.com/t/font_1031158_u69w8yhxdu.woff?t=1630033759944") format("woff"), url("//at.alicdn.com/t/font_1031158_u69w8yhxdu.ttf?t=1630033759944") format("truetype"); }
</style></defs><path d="M746.666667 85.333333c64.8 0 117.333333 52.533333 117.333333 117.333334v618.666666c0 64.8-52.533333 117.333333-117.333333 117.333334H277.333333c-64.8 0-117.333333-52.533333-117.333333-117.333334V202.666667c0-64.8 52.533333-117.333333 117.333333-117.333334h469.333334zM597.333333 778.666667H426.666667a32 32 0 0 0 0 64h170.666666a32 32 0 0 0 0-64z m149.333334-629.333334H277.333333a53.333333 53.333333 0 0 0-53.333333 53.333334v480h576V202.666667a53.333333 53.333333 0 0 0-53.333333-53.333334z" p-id="3536"></path></svg>